<svg xmlns="http://www.w3.org/2000/svg" fill="none" viewBox="1160.22 0 110.31599999999999 505.53400503778334" style="max-height: 500px" width="110.31599999999999" height="505.53400503778334">
<circle fill="#8ECAE6" r="18.5" cy="352.5" cx="26.5"/>
<circle fill="#8ECAE6" r="18.5" cy="281.5" cx="66.5"/>
<circle fill="#8ECAE6" r="18.5" cy="143.5" cx="297.5"/>
<circle fill="#8ECAE6" r="18.5" cy="196.5" cx="343.5"/>
<circle fill="#8ECAE6" r="18.5" cy="400.5" cx="328.5"/>
<circle fill="#8ECAE6" r="18.5" cy="341.5" cx="390.5"/>
<circle fill="#8ECAE6" r="18.5" cy="290.5" cx="464.5"/>
<circle fill="#8ECAE6" r="18.5" cy="26.5" cx="1186.5"/>
<circle fill="#8ECAE6" r="18.5" cy="114.5" cx="1245.5"/>
<circle fill="#8ECAE6" r="18.5" cy="254.5" cx="1183.5"/>
<circle fill="#8ECAE6" r="18.5" cy="359.5" cx="1228.5"/>
<circle fill="#8ECAE6" r="18.5" cy="463.5" cx="1204.5"/>
<circle fill="#8ECAE6" r="18.5" cy="192.5" cx="424.5"/>
<circle fill="#8ECAE6" r="18.5" cy="104.5" cx="470.5"/>
<circle fill="#8ECAE6" r="18.5" cy="51.5" cx="424.5"/>
<circle fill="#8ECAE6" r="18.5" cy="336.5" cx="294.5"/>
<circle fill="#8ECAE6" r="18.5" cy="22.5" cx="142.5"/>
<circle fill="#8ECAE6" r="18.5" cy="22.5" cx="316.5"/>
<circle fill="#8ECAE6" r="18.5" cy="230.5" cx="107.5"/>
<circle fill="#8ECAE6" r="18.5" cy="160.5" cx="576.5"/>
<circle fill="#8ECAE6" r="18.5" cy="32.5" cx="595.5"/>
<circle fill="#8ECAE6" r="18.5" cy="26.5" cx="710.5"/>
<circle fill="#8ECAE6" r="18.5" cy="139.5" cx="716.5"/>
<circle fill="#8ECAE6" r="18.5" cy="296.5" cx="722.5"/>
<circle fill="#8ECAE6" r="18.5" cy="388.5" cx="747.5"/>
<circle fill="#8ECAE6" r="18.5" cy="397.5" cx="637.5"/>
<circle fill="#8ECAE6" r="18.5" cy="340.5" cx="585.5"/>
<circle fill="#8ECAE6" r="18.5" cy="389.5" cx="865.5"/>
<circle fill="#8ECAE6" r="18.5" cy="295.5" cx="913.5"/>
<circle fill="#8ECAE6" r="18.5" cy="219.5" cx="979.5"/>
<circle fill="#8ECAE6" r="18.5" cy="347.5" cx="992.5"/>
<circle fill="#8ECAE6" r="18.5" cy="399.5" cx="1077.5"/>
<circle fill="#8ECAE6" r="18.5" cy="82.5" cx="1040.5"/>
<circle fill="#8ECAE6" r="18.5" cy="26.5" cx="1027.5"/>
<circle fill="#8ECAE6" r="18.5" cy="124.5" cx="955.5"/>
<circle fill="#8ECAE6" r="18.5" cy="38.5" cx="913.5"/>
<circle fill="#8ECAE6" r="18.5" cy="150.5" cx="868.5"/>
<circle fill="#8ECAE6" r="18.5" cy="82.5" cx="752.5"/>
<circle fill="#8ECAE6" r="18.5" cy="248.5" cx="628.5"/>
<circle fill="#8ECAE6" r="18.5" cy="65.5" cx="350.5"/>
<circle fill="#8ECAE6" r="11.5" cy="172.5" cx="92.5"/>
<circle fill="#8ECAE6" r="11.5" cy="109.5" cx="33.5"/>
<circle fill="#8ECAE6" r="11.5" cy="99.5" cx="80.5"/>
<circle fill="#8ECAE6" r="11.5" cy="71.5" cx="33.5"/>
<circle fill="#8ECAE6" r="11.5" cy="230.5" cx="140.5"/>
<circle fill="#8ECAE6" r="11.5" cy="124.5" cx="583.5"/>
<circle fill="#8ECAE6" r="11.5" cy="21.5" cx="662.5"/>
<circle fill="#8ECAE6" r="11.5" cy="116.5" cx="759.5"/>
<circle fill="#8ECAE6" r="11.5" cy="83.5" cx="680.5"/>
<circle fill="#8ECAE6" r="11.5" cy="122.5" cx="634.5"/>
<circle fill="#8ECAE6" r="11.5" cy="212.5" cx="636.5"/>
<circle fill="#8ECAE6" r="11.5" cy="19.5" cx="886.5"/>
<circle fill="#8ECAE6" r="11.5" cy="84.5" cx="979.5"/>
<circle fill="#8ECAE6" r="11.5" cy="157.5" cx="997.5"/>
<circle fill="#8ECAE6" r="11.5" cy="179.5" cx="1178.5"/>
<circle fill="#8ECAE6" r="11.5" cy="17.5" cx="1254.5"/>
<circle fill="#8ECAE6" r="11.5" cy="150.5" cx="1235.5"/>
<circle fill="#8ECAE6" r="11.5" cy="62.5" cx="1175.5"/>
<circle fill="#8ECAE6" r="11.5" cy="286.5" cx="1198.5"/>
<circle fill="#8ECAE6" r="11.5" cy="398.5" cx="1230.5"/>
<circle fill="#8ECAE6" r="11.5" cy="306.5" cx="1237.5"/>
<circle fill="#8ECAE6" r="11.5" cy="329.5" cx="1183.5"/>
<circle fill="#8ECAE6" r="11.5" cy="491.5" cx="1224.5"/>
<circle fill="#8ECAE6" r="11.5" cy="60.5" cx="1067.5"/>
<circle fill="#8ECAE6" r="11.5" cy="249.5" cx="1004.5"/>
<circle fill="#8ECAE6" r="11.5" cy="205.5" cx="857.5"/>
<circle fill="#8ECAE6" r="11.5" cy="288.5" cx="853.5"/>
<circle fill="#8ECAE6" r="11.5" cy="267.5" cx="936.5"/>
<circle fill="#8ECAE6" r="11.5" cy="382.5" cx="1004.5"/>
<circle fill="#8ECAE6" r="11.5" cy="315.5" cx="1043.5"/>
<circle fill="#8ECAE6" r="11.5" cy="396.5" cx="900.5"/>
<circle fill="#8ECAE6" r="11.5" cy="108.5" cx="867.5"/>
<circle fill="#8ECAE6" r="11.5" cy="330.5" cx="711.5"/>
<circle fill="#8ECAE6" r="11.5" cy="359.5" cx="764.5"/>
<circle fill="#8ECAE6" r="11.5" cy="404.5" cx="686.5"/>
<circle fill="#8ECAE6" r="9" cy="301" cx="638"/>
<circle fill="#8ECAE6" r="9" cy="43" cx="884"/>
<circle fill="#8ECAE6" r="9" cy="111" cx="984"/>
<circle fill="#8ECAE6" r="9" cy="337" cx="1056"/>
<circle fill="#8ECAE6" r="9" cy="362" cx="1019"/>
<circle fill="#8ECAE6" r="9" cy="328" cx="923"/>
<circle fill="#8ECAE6" r="9" cy="360" cx="855"/>
<circle fill="#8ECAE6" r="9" cy="179" cx="855"/>
<circle fill="#8ECAE6" r="9" cy="265" cx="858"/>
<circle fill="#8ECAE6" r="9" cy="69" cx="866"/>
<circle fill="#8ECAE6" r="9" cy="16" cx="623"/>
<circle fill="#8ECAE6" r="9" cy="34" cx="681"/>
<circle fill="#8ECAE6" r="9" cy="29" cx="741"/>
<circle fill="#8ECAE6" r="9" cy="66" cx="584"/>
<circle fill="#8ECAE6" r="9" cy="148" cx="636"/>
<circle fill="#8ECAE6" r="9" cy="387" cx="594"/>
<circle fill="#8ECAE6" r="9" cy="319" cx="771"/>
<circle fill="#8ECAE6" r="11.5" cy="284.5" cx="618.5"/>
<circle fill="#8ECAE6" r="11.5" cy="111.5" cx="357.5"/>
<circle fill="#8ECAE6" r="11.5" cy="68.5" cx="479.5"/>
<circle fill="#8ECAE6" r="11.5" cy="231.5" cx="418.5"/>
<circle fill="#8ECAE6" r="11.5" cy="418.5" cx="379.5"/>
<circle fill="#8ECAE6" r="11.5" cy="401.5" cx="437.5"/>
<circle fill="#8ECAE6" r="11.5" cy="250.5" cx="285.5"/>
<circle fill="#8ECAE6" r="11.5" cy="182.5" cx="298.5"/>
<circle fill="#8ECAE6" r="11.5" cy="143.5" cx="355.5"/>
<circle fill="#8ECAE6" r="11.5" cy="116.5" cx="197.5"/>
<circle fill="#8ECAE6" r="10.5" cy="36.5" cx="200.5"/>
<circle fill="#8ECAE6" r="10.5" cy="56.5" cx="297.5"/>
<circle fill="#8ECAE6" r="10.5" cy="87.5" cx="425.5"/>
<circle fill="#8ECAE6" r="15" cy="257" cx="15"/>
<circle fill="#8ECAE6" r="15" cy="155" cx="25"/>
<circle fill="#8ECAE6" r="15" cy="140" cx="73"/>
<circle fill="#8ECAE6" r="15" cy="83" cx="111"/>
<circle fill="#8ECAE6" r="15" cy="83" cx="201"/>
<circle fill="#8ECAE6" r="15" cy="208" cx="571"/>
<circle fill="#8ECAE6" r="15" cy="23" cx="60"/>
<circle fill="#8ECAE6" r="15" cy="369" cx="70"/>
<circle fill="#8ECAE6" r="5.5" cy="206.5" cx="13.5"/>
<circle fill="#8ECAE6" r="5.5" cy="13.5" cx="80.5"/>
<circle fill="#8ECAE6" r="5.5" cy="85.5" cx="16.5"/>
<circle fill="#8ECAE6" r="5.5" cy="134.5" cx="12.5"/>
<circle fill="#8ECAE6" r="5.5" cy="92.5" cx="137.5"/>
<circle fill="#8ECAE6" r="5.5" cy="21.5" cx="169.5"/>
<circle fill="#8ECAE6" r="5.5" cy="51.5" cx="189.5"/>
<circle fill="#8ECAE6" r="5.5" cy="51.5" cx="23.5"/>
<circle fill="#8ECAE6" r="5.5" cy="396.5" cx="12.5"/>
<circle fill="#8ECAE6" r="11" cy="317" cx="70"/>
<circle fill="#8ECAE6" r="11" cy="290" cx="285"/>
<circle fill="#8ECAE6" r="8" cy="249" cx="81"/>
<circle fill="#8ECAE6" r="8" cy="249" cx="81"/>
<circle fill="#8ECAE6" r="8" cy="376" cx="11"/>
<circle fill="#8ECAE6" r="8" cy="342" cx="75"/>
<circle fill="#8ECAE6" r="4" cy="216" cx="129"/>
<circle fill="#8ECAE6" r="4" cy="175" cx="280"/>
<circle fill="#8ECAE6" r="4" cy="121" cx="339"/>
<circle fill="#8ECAE6" r="4" cy="155" cx="470"/>
<circle fill="#8ECAE6" r="4" cy="107" cx="411"/>
<circle fill="#8ECAE6" r="4" cy="232" cx="469"/>
<circle fill="#8ECAE6" r="4" cy="257" cx="430"/>
<circle fill="#8ECAE6" r="4" cy="392" cx="457"/>
<circle fill="#8ECAE6" r="4" cy="323" cx="471"/>
<circle fill="#8ECAE6" r="4" cy="370" cx="466"/>
<circle fill="#8ECAE6" r="4" cy="249" cx="358"/>
<circle fill="#8ECAE6" r="4" cy="409" cx="360"/>
<circle fill="#8ECAE6" r="4" cy="121" cx="141"/>
<circle fill="#8ECAE6" r="4" cy="98" cx="97"/>
<circle fill="#8ECAE6" r="4" cy="30" cx="178"/>
<circle fill="#8ECAE6" r="4" cy="161" cx="77"/>
<circle fill="#8ECAE6" r="4" cy="98" cx="19"/>
<circle fill="#8ECAE6" r="4" cy="199" cx="22"/>
<circle fill="#8ECAE6" r="4" cy="125" cx="22"/>
<circle fill="#8ECAE6" r="4" cy="306" cx="54"/>
<circle fill="#8ECAE6" r="4" cy="337" cx="7"/>
<circle fill="#8ECAE6" r="8" cy="204" cx="144"/>
<circle fill="#8ECAE6" r="8" cy="133" cx="564"/>
<circle fill="#8ECAE6" r="8" cy="238" cx="582"/>
<circle fill="#8ECAE6" r="8" cy="183" cx="877"/>
<circle fill="#8ECAE6" r="8" cy="31" cx="866"/>
<circle fill="#8ECAE6" r="8" cy="94" cx="956"/>
<circle fill="#8ECAE6" r="8" cy="143" cx="1014"/>
<circle fill="#8ECAE6" r="8" cy="23" cx="1089"/>
<circle fill="#8ECAE6" r="8" cy="17" cx="1057"/>
<circle fill="#8ECAE6" r="8" cy="55" cx="1048"/>
<circle fill="#8ECAE6" r="8" cy="169" cx="1254"/>
<circle fill="#8ECAE6" r="8" cy="57" cx="1202"/>
<circle fill="#8ECAE6" r="8" cy="297" cx="1178"/>
<circle fill="#8ECAE6" r="8" cy="450" cx="1231"/>
<circle fill="#8ECAE6" r="8" cy="258" cx="1243"/>
<circle fill="#8ECAE6" r="8" cy="409" cx="1198"/>
<circle fill="#8ECAE6" r="8" cy="386" cx="1207"/>
<circle fill="#8ECAE6" r="8" cy="405" cx="1014"/>
<circle fill="#8ECAE6" r="8" cy="370" cx="1073"/>
<circle fill="#8ECAE6" r="8" cy="198" cx="1244"/>
<circle fill="#8ECAE6" r="8" cy="10" cx="1232"/>
<circle fill="#8ECAE6" r="8" cy="57" cx="1260"/>
<circle fill="#8ECAE6" r="8" cy="136" cx="1175"/>
<circle fill="#8ECAE6" r="8" cy="323" cx="904"/>
<circle fill="#8ECAE6" r="8" cy="338" cx="854"/>
<circle fill="#8ECAE6" r="8" cy="286" cx="953"/>
<circle fill="#8ECAE6" r="8" cy="311" cx="571"/>
<circle fill="#8ECAE6" r="8" cy="336" cx="690"/>
<circle fill="#8ECAE6" r="8" cy="277" cx="745"/>
<circle fill="#8ECAE6" r="8" cy="410" cx="664"/>
<circle fill="#8ECAE6" r="8" cy="356" cx="741"/>
<circle fill="#8ECAE6" r="8" cy="362" cx="607"/>
<circle fill="#8ECAE6" r="8" cy="169" cx="117"/>
<circle fill="#8ECAE6" r="8" cy="8" cx="446"/>
<circle fill="#8ECAE6" r="5" cy="189" cx="139"/>
<circle fill="#8ECAE6" r="5" cy="226" cx="280"/>
<circle fill="#8ECAE6" r="5" cy="106" cx="569"/>
<circle fill="#8ECAE6" r="5" cy="236" cx="563"/>
<circle fill="#8ECAE6" r="5" cy="270" cx="958"/>
<circle fill="#8ECAE6" r="5" cy="225" cx="1178"/>
<circle fill="#8ECAE6" r="5" cy="351" cx="869"/>
<circle fill="#8ECAE6" r="5" cy="378" cx="890"/>
<circle fill="#8ECAE6" r="5" cy="392" cx="1025"/>
<circle fill="#8ECAE6" r="5" cy="412" cx="1053"/>
<circle fill="#8ECAE6" r="5" cy="245" cx="985"/>
<circle fill="#8ECAE6" r="5" cy="33" cx="1058"/>
<circle fill="#8ECAE6" r="5" cy="49" cx="864"/>
<circle fill="#8ECAE6" r="5" cy="198" cx="875"/>
<circle fill="#8ECAE6" r="5" cy="228" cx="853"/>
<circle fill="#8ECAE6" r="5" cy="261" cx="1021"/>
<circle fill="#8ECAE6" r="5" cy="358" cx="1187"/>
<circle fill="#8ECAE6" r="5" cy="275" cx="1247"/>
<circle fill="#8ECAE6" r="5" cy="284" cx="1238"/>
<circle fill="#8ECAE6" r="5" cy="416" cx="1215"/>
<circle fill="#8ECAE6" r="5" cy="469" cx="1232"/>
<circle fill="#8ECAE6" r="5" cy="494" cx="1197"/>
<circle fill="#8ECAE6" r="5" cy="218" cx="1251"/>
<circle fill="#8ECAE6" r="5" cy="157" cx="1171"/>
<circle fill="#8ECAE6" r="5" cy="120" cx="1182"/>
<circle fill="#8ECAE6" r="5" cy="36" cx="1257"/>
<circle fill="#8ECAE6" r="5" cy="99" cx="1170"/>
<circle fill="#8ECAE6" r="5" cy="29" cx="1237"/>
<circle fill="#8ECAE6" r="5" cy="358" cx="1068"/>
<circle fill="#8ECAE6" r="5" cy="177" cx="991"/>
<circle fill="#8ECAE6" r="5" cy="64" cx="986"/>
<circle fill="#8ECAE6" r="5" cy="111" cx="1040"/>
<circle fill="#8ECAE6" r="5" cy="331" cx="970"/>
<circle fill="#8ECAE6" r="5" cy="266" cx="915"/>
<circle fill="#8ECAE6" r="5" cy="370" cx="589"/>
<circle fill="#8ECAE6" r="5" cy="407" cx="609"/>
<circle fill="#8ECAE6" r="5" cy="393" cx="665"/>
<circle fill="#8ECAE6" r="5" cy="411" cx="730"/>
<circle fill="#8ECAE6" r="5" cy="339" cx="771"/>
<circle fill="#8ECAE6" r="5" cy="297" cx="753"/>
<circle fill="#8ECAE6" r="5" cy="152" cx="742"/>
<circle fill="#8ECAE6" r="5" cy="101" cx="770"/>
<circle fill="#8ECAE6" r="5" cy="15" cx="687"/>
<circle fill="#8ECAE6" r="5" cy="50" cx="574"/>
<circle fill="#8ECAE6" r="5" cy="106" cx="641"/>
<circle fill="#8ECAE6" r="5" cy="90" cx="703"/>
<circle fill="#8ECAE6" r="5" cy="277" cx="642"/>
<circle fill="#8ECAE6" r="5" cy="113" cx="287"/>
<circle fill="#8ECAE6" r="5" cy="121" cx="420"/>
<circle fill="#8ECAE6" r="5" cy="265" cx="352"/>
<circle fill="#8ECAE6" r="5" cy="279" cx="357"/>
<circle fill="#8ECAE6" r="5" cy="259" cx="480"/>
<circle fill="#8ECAE6" r="5" cy="278" cx="404"/>
<circle fill="#8ECAE6" r="5" cy="291" cx="412"/>
<circle fill="#8ECAE6" r="8" cy="30" cx="85"/>
<circle fill="#8ECAE6" r="8" cy="108" cx="146"/>
<circle fill="#8ECAE6" r="8" cy="23" cx="353"/>
<circle fill="#8ECAE6" r="8" cy="11" cx="111"/>
<circle fill="#8ECAE6" r="8" cy="128" cx="178"/>
<circle fill="#8ECAE6" r="8" cy="18" cx="186"/>
<circle fill="#8ECAE6" r="8" cy="102" cx="182"/>
<circle fill="#8ECAE6" r="8" cy="92" cx="295"/>
<circle fill="#8ECAE6" r="8" cy="14" cx="423"/>
<circle fill="#8ECAE6" r="8" cy="255" cx="412"/>
<circle fill="#8ECAE6" r="8" cy="315" cx="412"/>
<circle fill="#8ECAE6" r="8" cy="391" cx="413"/>
<circle fill="#8ECAE6" r="8" cy="415" cx="407"/>
<circle fill="#8ECAE6" r="8" cy="193" cx="473"/>
<circle fill="#8ECAE6" r="8" cy="219" cx="478"/>
<circle fill="#8ECAE6" r="8" cy="172" cx="479"/>
<circle fill="#8ECAE6" r="8" cy="227" cx="358"/>
<circle fill="#8ECAE6" r="8" cy="345" cx="476"/>
<circle fill="#8ECAE6" r="8" cy="297" cx="354"/>
<circle fill="#8ECAE6" r="8" cy="137" cx="474"/>
<circle fill="#8ECAE6" r="8" cy="270" cx="300"/>
<circle fill="#8ECAE6" r="8" cy="202" cx="284"/>
<circle fill="#8ECAE6" r="8" cy="385" cx="27"/>
<circle fill="#8ECAE6" r="11" cy="317" cx="11"/>
<circle fill="#8ECAE6" r="11" cy="289" cx="27"/>
<circle fill="#8ECAE6" r="11" cy="327" cx="353"/>
<circle fill="#8ECAE6" r="11" cy="367" cx="310"/>
<circle fill="#8ECAE6" r="11" cy="155" cx="415"/>
<circle fill="#8ECAE6" r="11" cy="15" cx="476"/>
<circle fill="#8ECAE6" r="11" cy="402" cx="67"/>
<circle fill="#8ECAE6" r="11" cy="409" cx="30"/>
<circle fill="#8ECAE6" r="11" cy="226" cx="11"/>
<circle fill="#8ECAE6" r="11" cy="184" cx="14"/>
</svg>