<svg width="155" height="425" viewBox="0 0 155 425" fill="none" xmlns="http://www.w3.org/2000/svg">
<circle cx="6.50276" cy="417.95" r="6.50276" fill="#8ECAE6"/>
<circle cx="19.5081" cy="412.039" r="6.50276" fill="#8ECAE6"/>
<circle cx="34.8785" cy="412.039" r="6.50276" fill="#8ECAE6"/>
<circle cx="50.2486" cy="415.586" r="6.50276" fill="#8ECAE6"/>
<circle cx="63.2542" cy="404.945" r="6.50276" fill="#8ECAE6"/>
<circle cx="78.6243" cy="406.127" r="6.50276" fill="#8ECAE6"/>
<circle cx="89.2652" cy="393.122" r="6.50276" fill="#8ECAE6"/>
<circle cx="63.2542" cy="387.21" r="6.50276" fill="#8ECAE6"/>
<circle cx="72.7127" cy="374.204" r="6.50276" fill="#8ECAE6"/>
<circle cx="91.6297" cy="376.569" r="6.50276" fill="#8ECAE6"/>
<circle cx="96.359" cy="408.492" r="6.50276" fill="#8ECAE6"/>
<circle cx="111.729" cy="414.403" r="6.50276" fill="#8ECAE6"/>
<circle cx="130.647" cy="413.221" r="6.50276" fill="#8ECAE6"/>
<circle cx="148.381" cy="415.586" r="6.50276" fill="#8ECAE6"/>
<circle cx="62.0719" cy="363.564" r="6.50276" fill="#8ECAE6"/>
<circle cx="92.8123" cy="356.47" r="6.50276" fill="#8ECAE6"/>
<circle cx="62.0719" cy="338.735" r="6.50276" fill="#8ECAE6"/>
<circle cx="96.359" cy="337.553" r="6.50276" fill="#8ECAE6"/>
<circle cx="99.9061" cy="310.359" r="6.50276" fill="#8ECAE6"/>
<circle cx="57.3426" cy="323.365" r="6.50276" fill="#8ECAE6"/>
<circle cx="52.6134" cy="304.448" r="6.50276" fill="#8ECAE6"/>
<circle cx="52.6134" cy="285.53" r="6.50276" fill="#8ECAE6"/>
<circle cx="98.7237" cy="283.166" r="6.50276" fill="#8ECAE6"/>
<circle cx="101.088" cy="265.431" r="6.50276" fill="#8ECAE6"/>
<circle cx="50.2486" cy="260.702" r="6.50276" fill="#8ECAE6"/>
<circle cx="54.9781" cy="245.331" r="6.50276" fill="#8ECAE6"/>
<circle cx="44.337" cy="235.873" r="6.50276" fill="#8ECAE6"/>
<circle cx="108.182" cy="242.967" r="6.50276" fill="#8ECAE6"/>
<circle cx="109.365" cy="213.409" r="6.50276" fill="#8ECAE6"/>
<circle cx="44.337" cy="213.409" r="6.50276" fill="#8ECAE6"/>
<circle cx="43.1549" cy="193.309" r="6.50276" fill="#8ECAE6"/>
<circle cx="105.818" cy="187.398" r="6.50276" fill="#8ECAE6"/>
<circle cx="43.1549" cy="170.845" r="6.50276" fill="#8ECAE6"/>
<circle cx="34.8785" cy="143.652" r="6.50276" fill="#8ECAE6"/>
<circle cx="23.0553" cy="135.376" r="6.50276" fill="#8ECAE6"/>
<circle cx="105.818" cy="148.381" r="6.50276" fill="#8ECAE6"/>
<circle cx="123.553" cy="153.111" r="6.50276" fill="#8ECAE6"/>
<circle cx="128.282" cy="133.011" r="6.50276" fill="#8ECAE6"/>
<circle cx="130.647" cy="112.912" r="6.50276" fill="#8ECAE6"/>
<circle cx="131.829" cy="88.0829" r="6.50276" fill="#8ECAE6"/>
<circle cx="115.276" cy="79.8067" r="6.50276" fill="#8ECAE6"/>
<circle cx="79.8065" cy="79.8067" r="6.50276" fill="#8ECAE6"/>
<circle cx="97.5416" cy="69.1658" r="6.50276" fill="#8ECAE6"/>
<circle cx="62.0719" cy="70.3481" r="6.50276" fill="#8ECAE6"/>
<circle cx="45.5194" cy="69.1658" r="6.50276" fill="#8ECAE6"/>
<circle cx="17.1439" cy="90.4475" r="6.50276" fill="#8ECAE6"/>
<circle cx="28.9669" cy="77.442" r="6.50276" fill="#8ECAE6"/>
<circle cx="15.9613" cy="107" r="6.50276" fill="#8ECAE6"/>
<circle cx="71.5303" cy="47.884" r="6.50276" fill="#8ECAE6"/>
<circle cx="89.2652" cy="41.9724" r="6.50276" fill="#8ECAE6"/>
<circle cx="96.359" cy="14.779" r="6.50276" fill="#8ECAE6"/>
<circle cx="78.6243" cy="7.68507" r="6.50276" fill="#8ECAE6"/>
<circle cx="62.0719" cy="6.50276" r="6.50276" fill="#8ECAE6"/>
<circle cx="53.7955" cy="21.8729" r="6.50276" fill="#8ECAE6"/>
<circle cx="58.5247" cy="40.7901" r="6.50276" fill="#8ECAE6"/>
<circle cx="34.8785" cy="412.039" r="6.50276" fill="#8ECAE6"/>
<circle cx="50.2486" cy="415.586" r="6.50276" fill="#8ECAE6"/>
<circle cx="63.2542" cy="404.945" r="6.50276" fill="#8ECAE6"/>
<circle cx="78.6243" cy="406.127" r="6.50276" fill="#8ECAE6"/>
<circle cx="89.2652" cy="393.122" r="6.50276" fill="#8ECAE6"/>
<circle cx="63.2542" cy="387.21" r="6.50276" fill="#8ECAE6"/>
<circle cx="72.7127" cy="374.204" r="6.50276" fill="#8ECAE6"/>
<circle cx="91.6297" cy="376.569" r="6.50276" fill="#8ECAE6"/>
<circle cx="96.359" cy="408.492" r="6.50276" fill="#8ECAE6"/>
<circle cx="111.729" cy="414.403" r="6.50276" fill="#8ECAE6"/>
<circle cx="130.647" cy="413.221" r="6.50276" fill="#8ECAE6"/>
<circle cx="148.381" cy="415.586" r="6.50276" fill="#8ECAE6"/>
<circle cx="62.0719" cy="363.564" r="6.50276" fill="#8ECAE6"/>
<circle cx="92.8123" cy="356.47" r="6.50276" fill="#8ECAE6"/>
<circle cx="62.0719" cy="338.735" r="6.50276" fill="#8ECAE6"/>
<circle cx="96.359" cy="337.553" r="6.50276" fill="#8ECAE6"/>
<circle cx="99.9061" cy="310.359" r="6.50276" fill="#8ECAE6"/>
<circle cx="57.3426" cy="323.365" r="6.50276" fill="#8ECAE6"/>
<circle cx="52.6134" cy="304.448" r="6.50276" fill="#FFB703"/>
<circle cx="52.6134" cy="285.53" r="6.50276" fill="#8ECAE6"/>
<circle cx="98.7237" cy="283.166" r="6.50276" fill="#8ECAE6"/>
<circle cx="101.088" cy="265.431" r="6.50276" fill="#8ECAE6"/>
<circle cx="50.2486" cy="260.702" r="6.50276" fill="#8ECAE6"/>
<circle cx="54.9781" cy="245.331" r="6.50276" fill="#8ECAE6"/>
<circle cx="44.337" cy="235.873" r="6.50276" fill="#8ECAE6"/>
<circle cx="108.182" cy="242.967" r="6.50276" fill="#8ECAE6"/>
<circle cx="109.365" cy="213.409" r="6.50276" fill="#8ECAE6"/>
<circle cx="44.337" cy="213.409" r="6.50276" fill="#8ECAE6"/>
<circle cx="43.1549" cy="193.309" r="6.50276" fill="#8ECAE6"/>
<circle cx="105.818" cy="187.398" r="6.50276" fill="#8ECAE6"/>
<circle cx="43.1549" cy="170.845" r="6.50276" fill="#8ECAE6"/>
<circle cx="34.8785" cy="143.652" r="6.50276" fill="#8ECAE6"/>
<circle cx="34.8785" cy="95.1768" r="6.50276" fill="#8ECAE6"/>
<circle cx="110.547" cy="131.829" r="6.50276" fill="#8ECAE6"/>
<circle cx="96.359" cy="201.586" r="6.50276" fill="#8ECAE6"/>
<circle cx="99.9061" cy="226.414" r="6.50276" fill="#8ECAE6"/>
<circle cx="97.5416" cy="86.9005" r="6.50276" fill="#FFB703"/>
<circle cx="54.9781" cy="181.486" r="6.50276" fill="#8ECAE6"/>
<circle cx="62.0719" cy="272.525" r="6.50276" fill="#8ECAE6"/>
<circle cx="75.0772" cy="31.3315" r="6.50276" fill="#8ECAE6"/>
<circle cx="104.635" cy="166.116" r="6.50276" fill="#8ECAE6"/>
<circle cx="114.094" cy="96.3591" r="6.50276" fill="#8ECAE6"/>
<circle cx="89.2652" cy="322.182" r="6.50276" fill="#8ECAE6"/>
<circle cx="92.8123" cy="251.243" r="6.50276" fill="#FFB703"/>
<circle cx="28.9669" cy="120.006" r="6.50276" fill="#8ECAE6"/>
<circle cx="49.0662" cy="154.293" r="6.50276" fill="#FFB703"/>
<circle cx="105.818" cy="148.381" r="6.50276" fill="#8ECAE6"/>
<circle cx="123.553" cy="153.111" r="6.50276" fill="#8ECAE6"/>
<circle cx="128.282" cy="133.011" r="6.50276" fill="#8ECAE6"/>
<circle cx="130.647" cy="112.912" r="6.50276" fill="#8ECAE6"/>
<circle cx="131.829" cy="88.0829" r="6.50276" fill="#8ECAE6"/>
<circle cx="115.276" cy="79.8067" r="6.50276" fill="#8ECAE6"/>
<circle cx="79.8065" cy="79.8067" r="6.50276" fill="#8ECAE6"/>
<circle cx="97.5416" cy="69.1658" r="6.50276" fill="#8ECAE6"/>
<circle cx="62.0719" cy="70.3481" r="6.50276" fill="#8ECAE6"/>
<circle cx="45.5194" cy="69.1658" r="6.50276" fill="#FFB703"/>
<circle cx="28.9669" cy="77.442" r="6.50276" fill="#8ECAE6"/>
<circle cx="71.5303" cy="47.884" r="6.50276" fill="#8ECAE6"/>
<circle cx="89.2652" cy="41.9724" r="6.50276" fill="#FFB703"/>
<circle cx="96.359" cy="14.779" r="6.50276" fill="#8ECAE6"/>
<circle cx="78.6243" cy="7.68507" r="6.50276" fill="#8ECAE6"/>
<circle cx="62.0719" cy="6.50276" r="6.50276" fill="#8ECAE6"/>
<circle cx="53.7955" cy="21.8729" r="6.50276" fill="#8ECAE6"/>
<circle cx="58.5247" cy="40.7901" r="6.50276" fill="#8ECAE6"/>
</svg>
